<?xml version="1.0" encoding="UTF-8"?>
<svg width="256px" height="256px" viewBox="0 0 256 256" version="1.1" xmlns="http://www.w3.org/2000/svg" xmlns:xlink="http://www.w3.org/1999/xlink">
    <!-- Generator: Sketch 47.1 (45422) - http://www.bohemiancoding.com/sketch -->
    <title>icon_256x256</title>
    <desc>Created with Sketch.</desc>
    <defs></defs>
    <g id="outline" stroke="none" stroke-width="1" fill="none" fill-rule="evenodd">
        <g id="icon_256x256" stroke="#000000" stroke-width="3">
            <g id="Neo4j" transform="translate(19.000000, 2.000000)">
                <g id="Background" transform="translate(0.015249, 9.421866)">
                    <path d="M129.702743,203.143791 C146.676662,198.644383 162.725158,189.740656 176.036502,176.432611 C193.637391,158.836205 203.536151,136.45556 205.732783,113.477831 M169.817024,25.0804333 L169.817024,25.0804333 C142.558999,1.92433511 106.092254,-4.76630806 73.512758,5.00850378 M20.9819947,41.5998027 C-9.54796324,81.9481126 -6.41462608,139.645528 30.3820007,176.432611 C33.3678554,179.417726 36.4914288,182.181239 39.7322735,184.723152" id="Combined-Shape"></path>
                </g>
                <g id="Relationships" transform="translate(26.266941, 16.672312)">
                    <path d="M139.704215,140.993341 C143.086224,144.374591 143.086224,149.856531 139.704215,153.237743 C136.322205,156.618946 130.838918,156.618946 127.456909,153.237743 C124.074899,149.856568 124.074899,144.374628 127.456909,140.993341 C130.838918,137.612185 136.322205,137.612185 139.704215,140.993341" id="Shape"></path>
                    <path d="M124.855341,159.549514 C128.237351,162.930689 128.237351,168.412657 124.855341,171.793822 C121.473331,175.175025 115.990045,175.175025 112.608035,171.793822 C109.226026,168.412648 109.226026,162.93068 112.608035,159.549514 C115.990045,156.168312 121.473331,156.168312 124.855341,159.549514" id="Shape"></path>
                    <path d="M33.373288,128.145322 C36.7553164,131.526478 36.7553164,137.008474 33.373288,140.38963 C29.9912877,143.770786 24.5079731,143.770786 21.1259821,140.38963 C17.7439538,137.008474 17.7439538,131.526478 21.1259821,128.145322 C24.5079825,124.764073 29.991297,124.764073 33.373288,128.145322" id="Shape"></path>
                    <path d="M21.0040877,106.465925 C24.3861161,109.847081 24.3861161,115.329077 21.0040877,118.710233 C17.6220874,122.091389 12.1387728,122.091389 8.75678183,118.710233 C5.37475346,115.329077 5.37475346,109.847081 8.75678183,106.465925 C12.1387822,103.084676 17.6220967,103.084676 21.0040877,106.465925" id="Shape"></path>
                    <path d="M76.1284151,2.95086984 C79.5104248,6.3320259 79.5104248,11.8140219 76.1284151,15.1951779 C72.7464054,18.5764274 67.2630254,18.5764274 63.8810157,15.1951779 C60.4989874,11.8140219 60.4989874,6.3320259 63.8810157,2.95086984 C67.262988,-0.430286213 72.746368,-0.430286213 76.1284151,2.95086984" id="Shape"></path>
                    <path d="M96.0568464,10.9555559 C99.438856,14.3367119 99.438856,19.8187079 96.0568464,23.199864 C92.6748367,26.58102 87.1915502,26.58102 83.8095405,23.199864 C80.4275308,19.8187079 80.4275308,14.3367119 83.8095405,10.9555559 C87.1915502,7.57430637 92.6748367,7.57430637 96.0568464,10.9555559" id="Shape"></path>
                    <path d="M14.8880532,56.9270358 C18.2700815,60.3081919 18.2700815,65.7901878 14.8880532,69.1713439 C11.5060528,72.5524999 6.02273829,72.5524999 2.6407473,69.1713439 C-0.741281074,65.7901878 -0.741281074,60.3081919 2.6407473,56.9270358 C6.02274763,53.5457863 11.5060622,53.5457863 14.8880532,56.9270358" id="Shape"></path>
                    <path d="M16.0565198,81.0409025 C19.4385481,84.422152 19.4385481,89.9040545 16.0565198,93.285304 C12.6745194,96.6664601 7.19120487,96.6664601 3.80921389,93.285304 C0.42718551,89.9040545 0.42718551,84.422152 3.80921389,81.0409025 C7.19121422,77.6597464 12.6745288,77.6597464 16.0565198,81.0409025" id="Shape"></path>
                </g>
                <g id="Nodes" transform="translate(14.776413, 0.076493)">
                    <path d="M101.90228,173.629559 C119.869276,191.592114 119.869276,220.715101 101.90228,238.677563 C83.935283,256.640211 54.8051306,256.640211 36.8381341,238.677563 C18.8710441,220.715008 18.8710441,191.592021 36.8381341,173.629559 C54.8051306,155.667004 83.9351895,155.667004 101.90228,173.629559" id="Shape"></path>
                    <path d="M54.793259,9.54900897 C67.2946362,22.0472308 67.2946362,42.3109907 54.793259,54.809306 C42.2918817,67.3076213 22.023193,67.3076213 9.52190923,54.809306 C-2.97946801,42.3109907 -2.97946801,22.0472308 9.52190923,9.54900897 C22.0232865,-2.94939981 42.2919752,-2.94939981 54.793259,9.54900897" id="Shape"></path>
                    <path d="M186.142177,50.0510157 C207.763015,71.6663969 207.763015,106.711921 186.142177,128.327302 C164.521432,149.94287 129.467248,149.94287 107.846503,128.327302 C86.2256644,106.711921 86.2256644,71.6663969 107.846503,50.0510157 C129.467248,28.4354477 164.521432,28.4354477 186.142177,50.0510157" id="Shape"></path>
                </g>
            </g>
        </g>
    </g>
</svg>